<svg version="1.1" id="Layer_1" xmlns="http://www.w3.org/2000/svg" x="0" y="0" viewBox="0 0 464 101" xml:space="preserve">
    <style>
        .st0{fill:#2e143d}
    </style>
    <path class="st0" d="M454.9 49.9h-20.5c0-1.7 1.6-9 10.7-9 7.5 0 9.4 5.2 9.8 9m.5 12.7c-.1.3-.3.6-.5.9-1.4 2.6-3.9 5.2-9.7 5.2-9 0-11.3-8.1-11.3-11.9h29.5v-4.2c0-5.2-2.5-19.5-18.3-19.5-14.5 0-19.9 13.3-19.9 21.6 0 7.5 3.7 21.6 20.4 21.6 12 0 16.5-9 17.6-12.8.1-.4.2-.7.2-.9M387.8 41.6h22.7L388 68l-.2.3v7.3h32.3v-8.2h-21.5l21.5-25V34h-32.3zM370.7 33.5V75.6h8.6v-37l-4.3-2.2c-.7-.4-2.4-1-2.4-2s.9-1.3 2-1.8l4.7-2.2v-8.6l-8.6 4v7.7zm-24.9-.3c-6.2 0-9.8 3.7-12.2 9.5l.2-8.7h-8.6v41.6h8.6l.2-23.7v-3c1-6.5 7.2-7.4 10.6-7.4 2.2 0 4.8.6 6.1 1.9 2.8 2.8 2.7 8.1 2.7 10.7v21.4h9.3V51.6c0-11.8-6-18.4-16.9-18.4m-38.2 20.4c0 7.6-4.1 14.4-11.3 14.4-3.5 0-11.1-1.3-11.1-13.1 0-.1 0-13.3 11.6-13.3 7.5 0 10.8 5.2 10.8 11.4v.6zm.2-11.3c-1.2-5.5-5.8-9.1-11.9-9.1-11.1 0-19.6 9.5-19.6 21.6 0 6.9 2.1 12.6 5.9 16.4 3.4 3.4 8 5.2 13 5.2 6.5 0 10.7-3.4 12.6-9.7l-.3 8.9h8.5V34h-8.5l.3 8.3zm-41-8.3l-9.5 26.9c-.4.8-1 1.8-1.8 1.8-1.1 0-1.8-1.6-2.1-2.5l-9-26.2h-9.2l15.6 41.6h8.9L276 34h-9.2zM221.3 18h8.6v57.6h-8.6zM203.5 53.6c0 7.6-4.1 14.4-11.3 14.4-3.5 0-11.1-1.3-11.1-13.1 0-.1 0-13.3 11.6-13.3 7.5 0 10.8 5.2 10.8 11.4.1 0 0 .6 0 .6zm.3-11.3c-1.2-5.5-5.8-9.1-11.9-9.1-11.1 0-19.6 9.5-19.6 21.6 0 6.9 2 12.6 5.9 16.4 3.4 3.4 8 5.2 13 5.2 6.5 0 10.7-3.4 12.6-9.7l-.3 8.9h8.5V34h-8.5l.3 8.3zM141.2 47v6.9s7.7 0 11.9-.1c1.4 0 2.4 1.4 1.9 2.7-1.9 5.8-7.2 11.4-15.3 11.4-12.2 0-16.2-10.3-16.2-19.2 0-14.5 9-21.1 17.8-21.1 12.3 0 15.5 11.7 15.5 11.8l.2.7 8.8-.1-.1-1c-1-6.8-7.4-19.8-24.4-19.8-8.9 0-16.2 3.4-21.3 9.9-4.1 5.3-6.5 12.4-6.5 19.6 0 13.3 8.3 27.5 26.4 27.5 10.8 0 17.8-7.3 19.8-16.2v15.4h7.1V47h-25.6z"/>
    <path d="M79.7 83.8c-1.3-2.5 0-4.9 0-4.9s1.4-3.2 5.1-3.2h15.9l-12.5-25h-25l12.5 25h-50v-50h50L88.2.7h-25L54 18.9c-.8 1.6-2.3 2-3.4 2-1 0-2.4-.5-3.2-1.7L38.1.6h-25l12.5 25-25-12.5v25l18.6 9.3c1.4.8 1.8 2.2 1.8 3.2s-.6 2.6-2.1 3.3L.6 63.1v25l25-12.5-12.5 25h25L47.4 82c.8-1.4 2.2-1.8 3.2-1.8s2.6.5 3.3 2l9.2 18.3h25l-8.4-16.7z" fill="#785cba"/>
</svg>
